<svg width="319" height="516" viewBox="0 0 319 516" fill="none" xmlns="http://www.w3.org/2000/svg">
<path d="M301.328 516L-2.38168 2.5V516H301.328Z" fill="#3D70F1"/>
<path d="M301.328 516L-2.38168 2.5V516H301.328Z" fill="#294DAA"/>
<path d="M301.328 516L-2.38168 2.5V516H301.328Z" stroke="#3D70F1"/>
<path d="M218.945 609.624L-1.8851 3.55414L-101.941 547.085L218.945 609.624Z" fill="#3D70F1"/>
<path d="M218.945 609.624L-1.8851 3.55414L-101.941 547.085L218.945 609.624Z" fill="#3059C4"/>
<path d="M218.945 609.624L-1.8851 3.55414L-101.941 547.085L218.945 609.624Z" stroke="#3D70F1"/>
<path d="M-75 175.347L151.311 229.84L-1.71885 349.155L-24.1174 264.585L-24.7847 262.64L-75 175.347Z" fill="#F8B70F"/>
<path d="M151.311 229.84L-75 175.347L-24.7847 262.64M151.311 229.84L-1.71885 349.155L-24.1174 264.585L-24.7847 262.64M151.311 229.84L-24.7847 262.64M-33.0334 274.521L-32.3661 276.466" stroke="#F8B70F"/>
<path d="M-23.944 265.235L-1.80289 350.221L153.354 229.426L-23.944 265.235Z" fill="#EC920C"/>
</svg>
