<svg width="272" height="550" viewBox="0 0 272 550" fill="none" xmlns="http://www.w3.org/2000/svg">
<path d="M16.5834 558.412L301.576 0.552094V558.412H16.5834Z" fill="#F8B70F"/>
<path d="M16.5834 558.412L301.576 0.552094V558.412H16.5834Z" fill="#EC920C"/>
<path d="M16.5834 558.412L301.576 0.552094V558.412H16.5834Z" stroke="#F8B70F"/>
<path d="M93.8895 660.124L301.11 1.6973L395 592.183L93.8895 660.124Z" fill="#F8B70F"/>
<path d="M93.8895 660.124L301.11 1.6973L395 592.183L93.8895 660.124Z" fill="#F8B70F"/>
<path d="M93.8895 660.124L301.11 1.6973L395 592.183L93.8895 660.124Z" stroke="#F8B70F"/>
<path fill-rule="evenodd" clip-rule="evenodd" d="M281 558H208.733L133.903 256L155.339 285.34L281 457.333V558Z" fill="#294DAA"/>
<path d="M133.903 256L155.339 285.34L173.88 256H133.903Z" fill="#192953"/>
<path d="M97 334.409L208.733 558L133.903 256L97 334.409Z" fill="#1E3060"/>
<path d="M137.929 218.987L171.458 179.778L135 205L123.836 214.824L137.929 218.987Z" fill="#CF7C00"/>
<path d="M135 205L171.458 179.778L133.333 175.101L133.21 175.619L135 205Z" fill="#F8B70F"/>
<path fill-rule="evenodd" clip-rule="evenodd" d="M46 413.561L58.7368 396L68.4173 416.799L46 413.561Z" fill="#3059C4"/>
<path d="M46 413.561L77.2632 435.805L68.4173 416.799L46 413.561Z" fill="#1E3060"/>
<path d="M90 444L86.5263 419.415L68.4173 416.799L77.2632 435.805L90 444Z" fill="#3059C4" fill-opacity="0.87"/>
</svg>
