<svg width="385" height="400" viewBox="0 0 385 400" fill="none" xmlns="http://www.w3.org/2000/svg">
<path d="M365.927 -3.1112C37.8451 283.645 -40.5139 349.674 -38.6831 346.844L-16.1214 200.223L23.2806 -55.837L302.959 -12.8007L365.927 -3.1112Z" fill="#3059C3"/>
<path d="M384.89 -16.3032C-24.2221 180.461 -121.171 225.117 -118.507 222.849L-51.0128 88.6207L66.8596 -145.797L326.446 -40.1003L384.89 -16.3032Z" fill="#294DAA"/>
<path d="M47 173.821L131.245 40L219 173.821L131.245 255V173.821H47Z" fill="#F8B70F"/>
<path d="M131.245 40L47 173.821H131.245M131.245 40L219 173.821M131.245 40V173.821M219 173.821L131.245 255V173.821M219 173.821H133.251H131.245M141.274 182.625H143.28" stroke="#F8B70F"/>
<path d="M47 174L131 40V174H47Z" fill="#EC920C"/>
</svg>