<svg width="48" height="50" viewBox="0 0 48 50" fill="none" xmlns="http://www.w3.org/2000/svg">
<path d="M33.48 44.6591L36.24 42.0455L32.4 38.4091L29.64 41.0227C29.08 41.553 28.8 42.1591 28.8 42.8409C28.8 43.5227 29.08 44.1288 29.64 44.6591C30.2 45.1894 30.84 45.4545 31.56 45.4545C32.28 45.4545 32.92 45.1894 33.48 44.6591ZM39.6 38.8636L42.36 36.25C42.92 35.7197 43.2 35.1136 43.2 34.4318C43.2 33.75 42.92 33.1439 42.36 32.6136C41.8 32.0833 41.16 31.8182 40.44 31.8182C39.72 31.8182 39.08 32.0833 38.52 32.6136L35.76 35.2273L39.6 38.8636ZM36.9 47.8977C35.42 49.2992 33.64 50 31.56 50C29.48 50 27.7 49.2992 26.22 47.8977C24.74 46.4962 24 44.8106 24 42.8409C24 40.8712 24.74 39.1856 26.22 37.7841L35.1 29.375C36.58 27.9735 38.36 27.2727 40.44 27.2727C42.52 27.2727 44.3 27.9735 45.78 29.375C47.26 30.7765 48 32.4621 48 34.4318C48 36.4015 47.26 38.0871 45.78 39.4886L36.9 47.8977ZM4.8 45.4545C3.48 45.4545 2.35 45.0095 1.41 44.1193C0.47 43.2292 0 42.1591 0 40.9091V9.09091C0 7.84091 0.47 6.77083 1.41 5.88068C2.35 4.99053 3.48 4.54545 4.8 4.54545H14.88C15.4 3.18182 16.27 2.08333 17.49 1.25C18.71 0.416667 20.08 0 21.6 0C23.12 0 24.49 0.416667 25.71 1.25C26.93 2.08333 27.8 3.18182 28.32 4.54545H38.4C39.72 4.54545 40.85 4.99053 41.79 5.88068C42.73 6.77083 43.2 7.84091 43.2 9.09091V23.0114C42.4 22.822 41.6 22.7273 40.8 22.7273C40 22.7273 39.2 22.7841 38.4 22.8977V9.09091H4.8V40.9091H19.38C19.26 41.6667 19.2 42.4242 19.2 43.1818C19.2 43.9394 19.3 44.697 19.5 45.4545H4.8ZM21.6 7.38636C22.12 7.38636 22.55 7.22538 22.89 6.90341C23.23 6.58144 23.4 6.17424 23.4 5.68182C23.4 5.18939 23.23 4.7822 22.89 4.46023C22.55 4.13826 22.12 3.97727 21.6 3.97727C21.08 3.97727 20.65 4.13826 20.31 4.46023C19.97 4.7822 19.8 5.18939 19.8 5.68182C19.8 6.17424 19.97 6.58144 20.31 6.90341C20.65 7.22538 21.08 7.38636 21.6 7.38636ZM9.6 18.1818V13.6364H33.6V18.1818H9.6ZM9.6 27.2727V22.7273H33.6V24.6591C33.28 24.8485 32.97 25.0663 32.67 25.3125C32.37 25.5587 32.06 25.8333 31.74 26.1364L30.54 27.2727H9.6ZM9.6 36.3636V31.8182H25.74L22.8 34.6023C22.48 34.9053 22.19 35.1989 21.93 35.483C21.67 35.767 21.44 36.0606 21.24 36.3636H9.6Z" fill="#915803"/>
</svg>